<?xml version="1.0" standalone="no"?><!DOCTYPE svg PUBLIC "-//W3C//DTD SVG 1.1//EN" "http://www.w3.org/Graphics/SVG/1.1/DTD/svg11.dtd"><svg t="1582794509107" class="icon" viewBox="0 0 1024 1024" version="1.1" xmlns="http://www.w3.org/2000/svg" p-id="928" xmlns:xlink="http://www.w3.org/1999/xlink" width="200" height="200"><defs><style type="text/css"></style></defs><path d="M896.298356 767.301818c-32.349091 0-61.998545 12.427636-84.666181 32.349091l-213.038546-190.370909a222.394182 222.394182 0 0 0 39.889455-127.255273 219.694545 219.694545 0 0 0-23.738182-100.305454L754.427811 266.891636a156.299636 156.299636 0 0 0 221.649454 4.328728 156.299636 156.299636 0 0 0 4.328728-221.649455 156.299636 156.299636 0 0 0-221.649455-4.328727 157.090909 157.090909 0 0 0-28.578909 189.300363L593.752902 347.229091a222.440727 222.440727 0 0 0-179.060364-89.506909 222.347636 222.347636 0 0 0-133.725091 44.218182L218.410356 221.044364A127.767273 127.767273 0 0 0 220.551447 40.354909 128.279273 128.279273 0 0 0 39.908538 38.213818C-10.220916 87.272727-12.408553 168.727273 37.208902 219.415273a128.930909 128.930909 0 0 0 148.293818 25.320727l65.256727 84.666182a218.112 218.112 0 0 0-59.857454 152.064c0 58.786909 22.667636 114.315636 63.627636 156.392727l-55.016727 74.426182a127.720727 127.720727 0 0 0-177.431273 35.048727 127.720727 127.720727 0 0 0 35.048727 177.431273 127.720727 127.720727 0 0 0 171.52-184.971636l55.528728-76.055273a218.856727 218.856727 0 0 0 129.442909 41.006545 222.161455 222.161455 0 0 0 158.533818-65.815272l213.038545 190.929454a128.325818 128.325818 0 0 0 45.288728 175.290182 128.232727 128.232727 0 0 0 175.243636-45.288727 128.325818 128.325818 0 0 0-45.288727-175.290182 125.812364 125.812364 0 0 0-64.139637-17.268364z m0 0" fill="#2c2c2c" p-id="929"></path></svg>