<?xml version="1.0" standalone="no"?><!DOCTYPE svg PUBLIC "-//W3C//DTD SVG 1.1//EN" "http://www.w3.org/Graphics/SVG/1.1/DTD/svg11.dtd"><svg t="1582794748402" class="icon" viewBox="0 0 1024 1024" version="1.1" xmlns="http://www.w3.org/2000/svg" p-id="990" xmlns:xlink="http://www.w3.org/1999/xlink" width="200" height="200"><defs><style type="text/css"></style></defs><path d="M703.147 566.613h-491.52c-20.48 0-37.547-17.066-37.547-37.546s17.067-37.547 37.547-37.547h491.52c20.48 0 37.546 17.067 37.546 37.547 0 20.48-17.066 37.546-37.546 37.546zM494.933 354.987H211.627c-20.48 0-37.547-17.067-37.547-37.547s17.067-37.547 37.547-37.547H491.52c20.48 0 37.547 17.067 37.547 37.547s-13.654 37.547-34.134 37.547z" fill="#2c2c2c" p-id="991"></path><path d="M952.32 354.987c0-20.48-17.067-37.547-37.547-37.547-20.48 0-37.546 17.067-37.546 37.547v570.026c0 13.654-10.24 23.894-23.894 23.894H133.12c-13.653 0-23.893-10.24-23.893-23.894v-788.48c0-13.653 10.24-23.893 23.893-23.893h501.76c20.48 0 37.547-17.067 37.547-37.547 0-20.48-17.067-37.546-37.547-37.546H133.12c-54.613 0-98.987 44.373-98.987 98.986v788.48c0 54.614 44.374 98.987 98.987 98.987h720.213c54.614 0 98.987-44.373 98.987-98.987V354.987z" fill="#2c2c2c" p-id="992"></path><path d="M669.013 354.987c-10.24 0-20.48-3.414-27.306-10.24-13.654-13.654-13.654-37.547 0-51.2L921.6 13.653C935.253 0 959.147 0 972.8 13.653c13.653 13.654 13.653 37.547 0 51.2L692.907 344.747c-3.414 6.826-13.654 10.24-23.894 10.24z" fill="#2c2c2c" p-id="993"></path></svg>