<?xml version="1.0" standalone="no"?><!DOCTYPE svg PUBLIC "-//W3C//DTD SVG 1.1//EN" "http://www.w3.org/Graphics/SVG/1.1/DTD/svg11.dtd"><svg t="1582794198829" class="icon" viewBox="0 0 1024 1024" version="1.1" xmlns="http://www.w3.org/2000/svg" p-id="1159" xmlns:xlink="http://www.w3.org/1999/xlink" width="200" height="200"><defs><style type="text/css"></style></defs><path d="M470.44532148 545.65799506c127.12365827 0 230.55726617-103.4336079 230.55726617-230.55726617 0-127.12365827-103.4336079-230.55726617-230.55726617-230.55726617s-230.55726617 103.4336079-230.55726617 230.55726617c0 127.12365827 103.4336079 230.55726617 230.55726617 230.55726617z m0-395.48144197c91.0060405 0 165.05362963 74.04758914 165.05362963 165.05362963s-74.04758914 165.05362963-165.05362963 165.05362963S305.39169185 406.2362232 305.39169185 315.23018272s74.04758914-165.05362963 165.05362963-165.05362963zM754.72592592 873.82344691H85.83800098c44.66157037-117.67352889 203.37196247-201.30070124 387.06694321-201.30070122 64.07964445 0 127.90038124 10.48576 184.47170371 30.42164937 17.08790518 5.95487605 35.7292563-2.97743803 41.81358618-20.06534321 5.95487605-17.08790518-2.97743803-35.7292563-20.06534322-41.81358616-64.3385521-22.65441975-133.72580347-34.04635653-206.21994667-34.04635655-222.01331358 0-413.86388543 112.49537581-456.19528691 267.45160691-4.2719763 15.53445925-1.03563061 31.84564148 8.67340642 44.66157037 9.83849086 12.81592889 24.72568098 20.19479703 40.90740939 20.19479705h688.43545283c18.12353581 0 32.75181827-14.62828247 32.75181827-32.75181829 0-17.99408197-14.62828247-32.75181827-32.75181827-32.75181827z" fill="#2c2c2c" p-id="1160"></path><path d="M976.35087803 731.81259852h-109.25903013v-109.25903013c0-18.12353581-14.62828247-32.75181827-32.75181827-32.75181826s-32.75181827 14.62828247-32.75181827 32.75181826v109.25903013h-109.25903012c-18.12353581 0-32.75181827 14.62828247-32.75181827 32.75181828s14.62828247 32.75181827 32.75181827 32.75181826h109.25903012v109.25903012c0 18.12353581 14.62828247 32.75181827 32.75181827 32.75181829s32.75181827-14.62828247 32.75181827-32.75181829v-109.25903012h109.25903013c18.12353581 0 32.75181827-14.62828247 32.75181827-32.75181826 0-17.99408197-14.62828247-32.75181827-32.75181827-32.75181828z" fill="#2c2c2c" p-id="1161"></path></svg>