<?xml version="1.0" standalone="no"?><!DOCTYPE svg PUBLIC "-//W3C//DTD SVG 1.1//EN" "http://www.w3.org/Graphics/SVG/1.1/DTD/svg11.dtd"><svg t="1584621945525" class="icon" viewBox="0 0 1194 1024" version="1.1" xmlns="http://www.w3.org/2000/svg" p-id="1115" xmlns:xlink="http://www.w3.org/1999/xlink" width="233.203125" height="200"><defs><style type="text/css"></style></defs><path d="M743.082667 443.989333a246.784 246.784 0 0 0 95.061333-194.474666c0-136.362667-110.933333-247.381333-247.466667-247.381334a247.637333 247.637333 0 0 0-247.296 247.466667c0 78.848 37.205333 149.077333 94.976 194.389333A412.757333 412.757333 0 0 0 178.346667 826.88v82.432c0 22.784 18.432 41.216 41.216 41.216h742.144a41.216 41.216 0 0 0 41.216-41.216v-82.432a412.672 412.672 0 0 0-259.925334-382.805333zM590.762667 84.650667c90.88 0 164.864 73.898667 164.864 164.864a165.12 165.12 0 0 1-164.864 164.949333A165.12 165.12 0 0 1 425.813333 249.514667c0-90.965333 73.984-164.864 164.949334-164.864z m329.813333 783.36h-659.626667v-41.216a330.24 330.24 0 0 1 329.813334-329.898667 330.24 330.24 0 0 1 329.813333 329.898667v41.216z m-605.866667-409.6c1.109333-2.56 1.109333-5.205333 1.706667-7.765334 0.426667-1.621333 0.853333-3.072 1.024-4.778666a39.765333 39.765333 0 0 0-0.341333-9.472c-0.170667-1.706667 0.256-3.413333-0.170667-5.034667-0.170667-0.938667-0.853333-1.706667-1.194667-2.56-0.597333-1.877333-1.536-3.584-2.389333-5.290667a40.362667 40.362667 0 0 0-6.058667-9.642666l-1.194666-1.024a39.594667 39.594667 0 0 0-12.970667-9.045334 123.818667 123.818667 0 0 1 21.162667-233.301333 41.301333 41.301333 0 0 0-19.370667-80.213333 205.824 205.824 0 0 0-104.106667 338.773333 328.533333 328.533333 0 0 0-177.322666 292.693333v63.744a41.216 41.216 0 1 0 82.432 0v-63.744c0-114.005333 76.714667-211.882667 186.709333-239.616a40.789333 40.789333 0 0 0 32.085333-23.808z m675.84-29.269334a205.824 205.824 0 0 0-98.986666-337.493333 41.301333 41.301333 0 0 0-21.418667 79.616 123.904 123.904 0 0 1 18.090667 232.448 40.277333 40.277333 0 0 0-13.141334 9.130667l-1.024 1.024a40.618667 40.618667 0 0 0-6.144 9.728c-0.853333 1.706667-1.792 3.413333-2.389333 5.12-0.256 0.938667-0.938667 1.706667-1.194667 2.645333-0.426667 1.706667 0 3.328-0.170666 5.034667a40.021333 40.021333 0 0 0-0.341334 9.472c0.256 1.706667 0.682667 3.157333 1.024 4.778666 0.597333 2.56 0.597333 5.12 1.706667 7.68 5.973333 13.653333 18.432 21.930667 32.085333 23.893334a246.101333 246.101333 0 0 1 186.709334 239.530666v63.744a41.216 41.216 0 1 0 82.432 0v-63.744a328.533333 328.533333 0 0 0-177.322667-292.693333z" fill="#2c2c2c" p-id="1116"></path></svg>