<?xml version="1.0" standalone="no"?><!DOCTYPE svg PUBLIC "-//W3C//DTD SVG 1.1//EN" "http://www.w3.org/Graphics/SVG/1.1/DTD/svg11.dtd"><svg t="1582793340516" class="icon" viewBox="0 0 1024 1024" version="1.1" xmlns="http://www.w3.org/2000/svg" p-id="773" xmlns:xlink="http://www.w3.org/1999/xlink" width="200" height="200"><defs><style type="text/css"></style></defs><path d="M885.76003105 584.51659399c-5.9116401-5.51971403-14.23214302-8.558933-23.42859504-8.55893299-18.74492299 0-32.349779 12.30320999-32.34977898 29.25427805L829.98165599 846.65284901c0 19.08056698-18.86771997 37.11838597-38.82423704 37.11838597L629.48118 883.77123498c-18.70808401 0-32.28633406 12.30320999-32.28633393 29.25530103 0 16.95208995 13.57824997 29.25632397 32.28633393 29.25632396l161.67624002 0c57.013505 0 103.39792801-42.89904203 103.39792794-95.62898798L894.55534697 605.21193801C894.55534697 597.04493194 891.51408098 589.88690499 885.76003105 584.51659399z" fill="#2c2c2c" p-id="774"></path><path d="M1007.07605005 510.62876998L536.55474409 71.45542499c-3.80874605-3.56519903-13.59257599-8.56711894-23.46952807-8.56711904-9.84420598 0-19.65464201 5.015224-23.47669094 8.57530607L19.08517202 510.61137302c-4.02261702 7.54381297-9.859555 18.656919-10.36506803 22.347984 0.07265491 8.16905305 4.86786797 17.64793906 10.21771201 27.69782901 4.47389501 3.38305001 13.22930298 7.37189808 22.068621 7.37189798 9.87695101 0 19.65975899-5.00192098 23.45213101-8.55279299l60.65647515-56.60622901 0 342.74310798c0 52.82715894 46.39874997 95.803973 103.43067386 95.803973l168.14865099 0c18.6896639 0 32.25563492-12.30218702 32.25563509-29.25427794L428.95000394 718.968795l200.53322202 0c18.70808401 0 32.28838002-12.32981602 32.28838002-29.31669905 0-16.91525104-13.58029691-29.192879-32.2883799-29.19287893L396.69334604 660.45921697c-18.70808401 0-32.28633406 12.277628-32.28633407 29.19287908l0 188.05911995L234.98640693 877.711216c-19.97391401 0-38.85800599-18.039865-38.85800592-37.12043199L196.12840096 436.56391409l316.89337006-295.7580041 448.60925099 412.59296605c4.54245597 4.19043904 14.32730997 8.63056394 23.53808896 8.630564 9.84113602 0 19.655665-5.0142 23.47976101-8.57632901 4.29174601-4.00010397 8.73494203-12.73402202 8.80452702-20.4947769C1016.94686196 529.18847403 1010.98917301 517.90549991 1007.07605005 510.62876998z" fill="#2c2c2c" p-id="775"></path></svg>