<?xml version="1.0" standalone="no"?><!DOCTYPE svg PUBLIC "-//W3C//DTD SVG 1.1//EN" "http://www.w3.org/Graphics/SVG/1.1/DTD/svg11.dtd"><svg t="1582794646916" class="icon" viewBox="0 0 1024 1024" version="1.1" xmlns="http://www.w3.org/2000/svg" p-id="988" xmlns:xlink="http://www.w3.org/1999/xlink" width="200" height="200"><defs><style type="text/css"></style></defs><path d="M1008.74540373 274.50659777c-0.69905067 3.1560843-1.31136727 6.33417577-2.11009738 9.46566383-8.07791882 31.73819481-35.88718996 53.28578434-69.04290418 53.30390788-87.09135677 0.05048699-174.18400805 0.01682899-261.27665935 0.01682901H321.72358669c-37.82511376 0-68.42540942-27.90377245-71.36401131-65.0686717-2.92177289-36.96424581 23.29780528-69.38207321 60.69701595-75.0715689 0.66539267-0.10097398 1.29065467-0.46603378 1.93533472-0.70681789h632.96578243c0.78319565 0.25631858 1.55085685 0.61102206 2.35347058 0.75601035 29.79250379 5.3205523 49.10183664 22.48224617 57.94741665 51.38928576 1.06540499 3.47583525 1.66865983 7.0927752 2.48551348 10.64369367l0.00129454 15.27166799z m0 284.23917921c-0.69905067 3.15737885-1.31266181 6.33676483-2.11009738 9.46825292-8.07791882 31.73690027-35.88977904 53.28319525-69.04937687 53.30261333-88.23055043 0.04919245-176.46110089 0.01682899-264.69165131 0.016829-117.21526235 0-234.43181922 0.00129454-351.64837611-0.00129453-37.11441225 0-67.041548-27.16976925-70.82159976-64.28418149-3.60787817-35.43927973 21.38965586-68.36456613 57.35322359-75.33694926 4.2719763-0.8285045 8.70188626-1.17544075 13.05800754-1.17544074 204.88268863-0.05695968 409.76278818 0.12945383 614.64288774-0.20194798 40.21224233-0.06472691 68.97688272 29.14652918 72.62359705 61.39995022 0.06213783 0.53076069 0.42072494 1.02786338 0.64079645 1.54050054 0.00258907 5.09141902 0.00258907 10.1815435 0.00258906 15.27166799zM312.99192605 904.07810085c-3.145728-0.69387251-6.31346315-1.30618912-9.4333004-2.097152-33.08839822-8.39637523-55.22888628-38.69763255-53.25212633-72.83719584 1.93274563-33.36801849 27.67334463-60.78504453 61.29250354-65.22919443 2.7936136-0.36764887 5.6247688-0.65374183 8.43650592-0.65374183 205.57526661-0.03106892 411.15053322-0.03883615 616.72321074-0.01941808 33.88065565 0.00129454 61.74300286 21.31068903 69.88305952 53.3285041 0.79614103 3.12501538 1.4071631 6.29792869 2.10362469 9.45012939v15.27166799c-0.26796942 0.93854025-0.64338551 1.8602515-0.78966835 2.81820981-4.24996915 28.26883223-25.23443453 51.26630463-52.98545145 58.00049273-2.98779433 0.72494143-6.00665758 1.31654542-9.01257545 1.96769816h-632.96448789zM93.2362872 196.44594c2.32499074 0.51781531 4.64739239 1.0589323 6.9775613 1.55215138 36.6224877 7.75428425 60.38244315 42.25372918 54.95832777 79.80828444-5.15614594 35.68783107-38.2354824 61.97343067-74.68320742 59.34810706-32.23788658-2.32369619-58.97916365-26.66360478-64.35797018-58.55584963-0.23172235-1.37868325-0.63302922-2.72888667-0.9540747-4.09203548v-15.27296254c0.28091481-1.08093947 0.64985822-2.14634445 0.82850449-3.24281836 4.79238068-29.427444 26.5665144-52.11940535 55.82955204-58.1687827 2.05054862-0.42460855 4.08556278-0.91782764 6.12834418-1.37738872l15.27296252 0.00129455z m-78.06065777 346.18024643c0.39871778-1.77869558 0.83497718-3.55350755 1.1870916-5.34255944 7.09148065-36.20823547 40.92812199-61.50480782 76.38681979-57.10078862 38.32610007 4.76131177 65.17352928 36.34286743 63.18252942 74.31944216-1.83306619 34.98360225-30.64948812 63.95795785-65.71464627 66.07323339-36.19529008 2.18518061-68.0965967-23.04925392-74.0864253-58.58432948-0.23172235-1.37868325-0.63302922-2.73018122-0.9540747-4.09203548v-15.27296253z m0 279.99568276c0.39871778-1.77740105 0.83497718-3.55221301 1.1870916-5.33997036 7.09018611-36.20694092 40.92812199-61.50610237 76.38681979-57.10078862 38.32610007 4.76001723 65.17223475 36.3415729 63.18252942 74.31944216-1.83306619 34.98360225-30.64948812 63.95666331-65.71464627 66.07323339-36.19399554 2.18518061-68.0965967-23.05054846-74.0864253-58.58562402-0.23172235-1.37868325-0.63302922-2.72888667-0.9540747-4.09074094v-15.27555161z" fill="#2c2c2c" p-id="989"></path></svg>