<?xml version="1.0" standalone="no"?><!DOCTYPE svg PUBLIC "-//W3C//DTD SVG 1.1//EN" "http://www.w3.org/Graphics/SVG/1.1/DTD/svg11.dtd"><svg t="1584621510143" class="icon" viewBox="0 0 1024 1024" version="1.1" xmlns="http://www.w3.org/2000/svg" p-id="1386" xmlns:xlink="http://www.w3.org/1999/xlink" width="200" height="200"><defs><style type="text/css"></style></defs><path d="M216.32144954 645.37931207c-53.25718414 40.15420757-96.9752997 89.84515584-129.93882113 147.69432007-33.85420685 59.41164829-54.38655031 124.07543125-61.02652472 192.19484103-1.70103468 17.45860381 11.07128206 32.99030016 28.52988586 34.69249991 1.04786603 0.10245803 2.08641707 0.15252253 3.11914611 0.15252253 16.1522654 0 29.97361209-12.27283456 31.57335266-28.68240839 11.37865501-116.73338653 71.87775488-224.37828494 165.98539605-295.33158969 14.0053049-10.55899193 16.79961315-30.47425821 6.23945728-44.48072818C250.24202183 637.61230051 230.3279195 634.81682831 216.32144954 645.37931207z" fill="#2c2c2c" p-id="1387"></path><path d="M974.01789099 986.43276913c-11.62897865-119.296-66.99237262-229.66418433-155.8921216-310.77363484-49.96106467-45.58331563-108.20259612-79.71928178-170.99768605-100.99677411 93.97025337-51.98460927 157.60945721-152.10117689 157.60945723-267.095106 0-168.47582321-136.57646647-305.05112576-305.05112578-305.05112575S194.63529017 139.09143097 194.63529017 307.56725305c0 164.53351993 130.26598798 298.61839532 293.28592327 304.80429511 1.12238023 0.11992291 2.25989632 0.18512326 3.41371334 0.18512327 218.01191993 0 398.34143061 163.38086797 419.46174237 380.03871289 1.59974173 16.41073891 15.41992334 28.68240839 31.57335267 28.68240839 1.03156508 0 2.07128122-0.05006451 3.11914611-0.15252253 16.41888882-1.60090566 28.69405127-15.43273131 28.68240839-31.59547449C974.16924956 988.50521429 974.11918507 987.47248526 974.01789099 986.43276913zM258.15690013 307.56725305c0-64.51475342 25.12315847-125.16870371 70.74256781-170.78694798 45.61940821-45.61940821 106.2721957-70.74256782 170.786948-70.74256782s125.16870371 25.12315847 170.78694796 70.74256782c45.61940821 45.61940821 70.74256782 106.2721957 70.74256783 170.78694798s-25.12315847 125.16870371-70.7425678 170.78694798c-45.61940821 45.61940821-106.2721957 70.74256782-170.78694802 70.74256781s-125.16870371-25.12315847-170.78694795-70.74256781C283.2800586 432.73479283 258.15690013 372.08200647 258.15690013 307.56725305z" fill="#2c2c2c" p-id="1388"></path></svg>