<?xml version="1.0" standalone="no"?><!DOCTYPE svg PUBLIC "-//W3C//DTD SVG 1.1//EN" "http://www.w3.org/Graphics/SVG/1.1/DTD/svg11.dtd"><svg t="1582792674740" class="icon" viewBox="0 0 1024 1024" version="1.1" xmlns="http://www.w3.org/2000/svg" p-id="774" xmlns:xlink="http://www.w3.org/1999/xlink" width="200" height="200"><defs><style type="text/css"></style></defs><path d="M341.333333 746.666667v-85.333334a170.666667 170.666667 0 1 1 341.333334 0v85.333334h85.333333v-85.333334c0-141.376-114.624-256-256-256s-256 114.624-256 256v85.333334h85.333333z m42.666667 85.333333H0v-170.666667C0 378.56 229.226667 149.333333 512 149.333333s512 229.226667 512 512v170.666667H597.333333v-170.666667a85.333333 85.333333 0 1 0-170.666666 0v170.666667h-42.666667zM170.666667 746.666667v-85.333334c0-188.522667 152.810667-341.333333 341.333333-341.333333s341.333333 152.810667 341.333333 341.333333v85.333334h85.333334v-85.333334c0-235.648-191.018667-426.666667-426.666667-426.666666S85.333333 425.685333 85.333333 661.333333v85.333334h85.333334z" fill="#2c2c2c" p-id="775"></path></svg>