<?xml version="1.0" standalone="no"?><!DOCTYPE svg PUBLIC "-//W3C//DTD SVG 1.1//EN" "http://www.w3.org/Graphics/SVG/1.1/DTD/svg11.dtd"><svg t="1583315711672" class="icon" viewBox="0 0 1024 1024" version="1.1" xmlns="http://www.w3.org/2000/svg" p-id="1084" xmlns:xlink="http://www.w3.org/1999/xlink" width="200" height="200"><defs><style type="text/css"></style></defs><path d="M486.87331555 599.09688889h235.08195556c20.16824889 0 36.48967111-16.33848889 36.48967111-36.48967111s-16.32142222-36.48967111-36.48967111-36.48967111H523.36298667v-205.94915556c0-20.15118222-16.32028445-36.48967111-36.48967112-36.48967111-20.16938667 0-36.48967111 16.33848889-36.4896711 36.48967111V562.60835555c0 20.15004445 16.32028445 36.48853333 36.4896711 36.48853334z" fill="#2c2c2c" p-id="1085"></path><path d="M824.47473778 112.18716445C717.67836445 28.74936889 584.79729778-8.06115555 450.27555555 8.45596445c-134.48419555 16.51598222-254.50154667 84.43448889-337.92227555 191.232-12.40177778 15.89248-9.58577778 38.82325333 6.30670222 51.2250311 15.89248 12.40064 38.80618667 9.53230222 51.20682667-6.28963555 71.41262222-91.43864889 174.1824-149.59388445 289.31754666-163.74101333 115.31264-14.07431111 228.95160889 17.38979555 320.39025778 88.81948444 188.72092445 147.41959111 222.32519111 420.93340445 74.90446222 609.70780444-147.456 188.75733333-420.87992889 222.39573333-609.70780444 74.90332445-128.63943111-100.48967111-189.75402667-262.64462222-159.46296889-423.21464889 3.74215111-19.81326222-9.26606222-38.89607111-29.07818667-42.63708444-19.63463111-3.59879111-38.91313778 9.30019555-42.61888 29.09525333-35.38488889 187.52853333 35.99018667 376.92529778 186.2610489 494.26887111 90.08355555 70.37838222 198.73336889 107.58144 311.30282666 107.58144 20.84750222 0 41.83608889-1.24700445 62.85994667-3.84796444 134.51946667-16.53418667 254.53795555-84.45383111 337.95754667-191.25020445 172.22200889-220.47175111 132.95274667-539.91765333-87.51786667-712.12145777z" fill="#2c2c2c" p-id="1086"></path></svg>