<?xml version="1.0" standalone="no"?><!DOCTYPE svg PUBLIC "-//W3C//DTD SVG 1.1//EN" "http://www.w3.org/Graphics/SVG/1.1/DTD/svg11.dtd"><svg t="1583315774952" class="icon" viewBox="0 0 1024 1024" version="1.1" xmlns="http://www.w3.org/2000/svg" p-id="1209" xmlns:xlink="http://www.w3.org/1999/xlink" width="200" height="200"><defs><style type="text/css"></style></defs><path d="M511.872 660.224c28.672 0 51.328-31.104 51.456-70.912V279.68c0-39.68-22.656-70.912-51.456-70.912-28.928 0-51.456 31.104-51.456 70.912v309.504c0 39.808 22.656 71.04 51.456 71.04z m0 32.896c-33.536 0-60.928 27.392-60.928 60.928 0 33.664 27.392 61.056 60.928 61.056s60.928-27.392 60.928-61.056c0-33.536-27.264-60.928-60.928-60.928z" fill="#2c2c2c" p-id="1210"></path><path d="M983.68 312.832c-25.728-61.056-62.72-115.84-109.824-162.944-47.488-47.232-102.272-84.096-162.816-109.696-126.336-53.632-273.152-53.504-398.464 0-61.184 25.984-115.968 62.848-162.816 109.696-47.232 47.232-83.968 101.888-109.44 162.56C13.568 375.04 0 442.112 0 512c0 69.76 13.568 136.704 40.32 199.168 25.728 61.184 62.464 115.84 109.568 162.688 47.104 47.104 101.888 83.968 162.816 109.696 62.848 26.752 129.92 40.32 199.296 40.32 68.864 0 135.936-13.44 199.168-40.064 60.928-25.728 115.84-62.72 162.816-109.696 46.848-46.592 83.712-101.248 109.824-162.688C1010.432 648.448 1024 581.376 1024 512c0-69.12-13.568-136.064-40.32-199.168zM952.448 512c0 242.816-197.632 440.32-440.576 440.32-242.944 0-440.576-197.504-440.576-440.32 0-242.944 197.632-440.576 440.576-440.576 242.944 0 440.576 197.632 440.576 440.576z" fill="#2c2c2c" p-id="1211"></path></svg>