<?xml version="1.0" standalone="no"?><!DOCTYPE svg PUBLIC "-//W3C//DTD SVG 1.1//EN" "http://www.w3.org/Graphics/SVG/1.1/DTD/svg11.dtd"><svg t="1582792841425" class="icon" viewBox="0 0 1024 1024" version="1.1" xmlns="http://www.w3.org/2000/svg" p-id="1035" xmlns:xlink="http://www.w3.org/1999/xlink" width="200" height="200"><defs><style type="text/css"></style></defs><path d="M109 824.2v-40.9 16.2c0.8 13.8 12.2 24.7 26.2 24.7H109zM517.8 892.9l-37-21.2 12.7 7.3c12 6.9 36.8 7.3 48.6-0.3l-24.3 14.2zM593.7 115.2h40.9-16.2c-13.8 0.8-24.7 12.2-24.7 26.2v-26.2zM109 115.3h40.9-16.2c-13.8 0.8-24.7 12.2-24.7 26.2v-26.2zM906.9 824.4H866h16.2c13.8-0.8 24.7-12.2 24.7-26.2v26.2zM906.8 115.2v40.9-16.2c-0.8-13.8-12.2-24.7-26.2-24.7h26.2zM423.6 296.4c0-22.6-18.3-41-41-41h-88.1c-22.6 0-41 18.3-41 41 0 22.6 18.3 41 41 41h88.1c22.6-0.1 41-18.4 41-41zM423.6 479.4c0-22.6-18.3-41-41-41H274.5c-22.6 0-41 18.3-41 41 0 22.6 18.3 41 41 41h108.1c22.6-0.1 41-18.4 41-41zM423.6 662.4c0-22.6-18.3-41-41-41h-78.1c-22.6 0-41 18.3-41 41 0 22.6 18.3 41 41 41h78.1c22.6 0 41-18.4 41-41z" fill="#242424" p-id="1036"></path><path d="M920.6 33.7h-0.5v-0.1H866v-0.1H577.7c-35.8 1.2-64.5 30-65.7 65.8v601.3c0 22.6 18.3 41 41 41s41-18.3 41-41V115.4h312.5V824H646.3c-0.4 0-0.8 0-1.2 0.1h-0.6c-0.5 0-1.1 0.1-1.6 0.2h-0.1c-6.2 0.8-12 2.9-17.1 6.2l-107.9 62.3-107.9-62.3c-5-3.2-10.8-5.4-17.1-6.2h-0.1c-0.5-0.1-1.1-0.1-1.6-0.2h-0.6c-0.4 0-0.8 0-1.2-0.1H109.2V115.4h265.7l32.3 18.6c19.6 11.3 44.6 4.6 55.9-15 11.3-19.6 4.6-44.6-15-55.9l-38.1-22c-6.7-4.8-14.9-7.6-23.7-7.6H93c-36.5 1.3-65.7 31.2-65.7 68v740.4c1.9 33.6 28.1 60.8 61.4 63.9h288.1l111.8 64.6c18.2 8.7 39.5 8.8 57.8 0.4l112.6-65h267.9c32.7-3 58.7-29.1 61.6-61.8V95.1c-3.5-34.5-32.6-61.4-67.9-61.4z" fill="#242424" p-id="1037"></path></svg>